# 3ds Max Wavefront OBJ Exporter v0.97b - (c)2007 guruware
# File Created: 21.10.2015 04:26:12

mtllib 3d-model.mtl

#
# object Layer0_001
#

v  -145.5059 0.0000 695.3203
v  -409.2787 0.0000 8.3261
v  -262.0961 0.0000 -255.0526
v  604.5491 0.0000 -528.8419
v  235.1492 0.0000 695.3203
v  604.5491 6607.6123 -528.8419
v  62.1362 6063.5522 574.1445
v  235.1492 5921.1597 695.3203
v  -110.8766 6209.5688 452.9687
v  -604.5491 1239.7000 -265.4632
v  604.5491 309.9250 -528.8419
v  604.5491 619.8499 -528.8419
v  604.5491 1087.0139 -528.8419
v  604.5491 1239.7000 -528.8419
v  235.1492 4498.7041 695.3203
v  604.5491 5648.2251 -528.8419
v  604.5491 5824.8384 -528.8419
v  604.5491 6216.2256 -528.8419
v  -324.6865 3634.8813 -448.3610
v  139.9313 2576.3169 -488.6014
v  604.5491 1517.7523 -528.8419
v  23.3410 549.8928 695.3203
v  235.1492 1239.7000 695.3203
v  -145.5059 619.8499 695.3203
v  -145.5059 1239.7000 695.3203
v  53.2003 6868.9946 -695.3203
v  -425.8379 3038.8103 -5.3883
v  -166.6720 5659.9497 388.6564
v  -222.4673 5110.3306 324.3442
v  -278.2744 4560.5972 260.0186
v  -361.9733 3736.1113 163.5435
v  -445.6721 2911.6255 67.0684
v  -581.5085 1093.4241 -233.1580
v  -458.0962 309.9250 -60.1212
v  -316.3464 461.3750 337.7487
v  235.1492 2058.2124 695.3203
v  235.1492 2265.7095 695.3203
v  -20.1826 2780.9800 695.3203
v  235.1492 4338.3105 695.3203
v  67.9391 3864.7383 695.3203
v  132.9612 4664.4077 695.3203
v  178.0665 5219.1323 695.3203
v  -468.2356 2674.1809 19.8427
v  -451.2181 2783.3032 -42.3238
v  -130.4224 5297.4746 -575.3179
v  -216.7707 4558.4697 -518.8870
v  604.5491 3451.2229 -528.8419
v  604.5491 4549.7241 -528.8419
v  -77.5253 5750.1909 -609.8876
v  604.5491 5197.7642 -528.8419
v  -26.5168 6186.7427 -643.2230
v  13.3417 6527.8687 -669.2717
v  604.5491 1795.8046 -528.8419
v  275.8893 1784.5825 560.3107
v  -463.1554 2727.6418 30.4757
# 55 vertices

vn 0.0000 -1.0000 -0.0000
vn 0.2833 0.7975 0.5327
vn -0.2937 -0.7921 -0.5351
vn 0.5737 -0.0000 -0.8191
vn -0.3000 -0.0908 -0.9496
vn -0.2128 0.0000 -0.9771
vn 0.9574 0.0000 0.2889
vn -0.2013 -0.0512 -0.9782
vn 0.0000 0.0000 1.0000
vn -0.2384 -0.8271 -0.5090
vn -0.2893 -0.7950 -0.5331
vn 0.9908 -0.1098 0.0785
vn -0.9314 -0.0677 0.3576
vn -0.9023 0.0000 0.4311
vn 0.8261 -0.0180 -0.5632
vn 0.8196 -0.0666 -0.5690
vn 0.7836 -0.0637 -0.6180
vn 0.7783 -0.0055 -0.6279
vn 0.7261 0.0067 -0.6876
vn 0.7327 -0.0596 -0.6780
vn 0.6866 -0.0558 -0.7249
vn 0.6769 0.0174 -0.7359
vn 0.5922 0.0341 -0.8050
vn 0.6266 -0.0510 -0.7777
vn 0.0987 0.0643 0.9930
vn -0.0631 -0.0000 0.9980
vn 0.0129 0.0746 0.9971
vn -0.1180 0.0000 0.9930
vn -0.0518 0.0821 0.9953
vn -0.1783 0.0000 0.9840
vn -0.1272 0.0903 0.9878
vn -0.2311 0.0000 0.9729
vn -0.0121 0.0000 -0.9999
vn -0.1893 -0.0528 -0.9805
vn -0.2891 -0.0000 0.9573
vn -0.1819 0.0960 0.9786
vn -0.0863 0.0000 -0.9963
vn -0.8478 -0.2382 -0.4738
# 38 vertex normals

vt 0.0000 0.0000 0.0000
vt 16.3588 2.3538 0.0000
vt -0.3500 0.0694 0.0000
vt 11.9736 0.0694 0.0000
vt 0.1671 0.5687 0.0000
vt 0.1671 -0.0000 0.0000
vt 16.9461 2.2750 0.0000
vt 0.1671 1.1375 0.0000
vt 0.1671 1.9948 0.0000
vt 0.1671 2.2750 0.0000
vt -12.4812 10.8658 0.0000
vt -12.4812 8.2555 0.0000
vt 4.8568 10.3650 0.0000
vt 4.8568 12.1255 0.0000
vt 4.8568 10.6891 0.0000
vt 4.8568 11.4073 0.0000
vt 12.7933 6.7109 0.0000
vt 6.5127 4.7658 0.0000
vt 17.0101 2.3098 0.0000
vt 0.1671 2.7852 0.0000
vt 0.2322 2.8207 0.0000
vt -9.2467 1.0091 0.0000
vt -6.3747 0.0000 0.0000
vt -6.3747 2.2750 0.0000
vt -11.5362 1.1375 0.0000
vt -11.5362 2.2750 0.0000
vt -1.0895 7.4365 0.0000
vt 13.3417 6.1370 0.0000
vt 4.7233 8.2899 0.0000
vt -1.4155 7.9435 0.0000
vt 10.9033 5.8667 0.0000
vt 13.4600 6.7393 0.0000
vt -2.8192 5.3175 0.0000
vt -8.6773 11.1715 0.0000
vt -7.8678 10.1568 0.0000
vt -7.0583 9.1420 0.0000
vt -6.2486 8.1271 0.0000
vt -5.0342 6.6049 0.0000
vt -3.8198 5.0827 0.0000
vt -7.6321 2.1464 0.0000
vt -4.8419 0.7053 0.0000
vt 0.8834 0.9838 0.0000
vt -8.1530 2.4154 0.0000
vt -6.3747 3.7770 0.0000
vt -6.3747 4.1578 0.0000
vt 5.0545 1.1375 0.0000
vt 5.0545 2.2750 0.0000
vt -9.3837 2.2750 0.0000
vt -0.3189 0.8467 0.0000
vt -9.8369 5.1033 0.0000
vt -6.3747 7.9612 0.0000
vt -8.6420 7.0921 0.0000
vt -7.7603 8.5596 0.0000
vt -6.3747 8.2555 0.0000
vt -6.3747 10.8658 0.0000
vt -7.1487 9.5776 0.0000
vt 6.6473 5.3073 0.0000
vt 4.9271 6.8206 0.0000
vt -3.6412 5.0675 0.0000
vt 6.7678 5.2022 0.0000
vt -3.5201 4.9619 0.0000
vt -2.5511 2.1273 0.0000
vt 5.8978 6.7233 0.0000
vt -3.3737 6.9599 0.0000
vt -2.6337 4.9670 0.0000
vt 6.0485 6.8457 0.0000
vt 4.3178 8.3587 0.0000
vt -3.2236 7.0817 0.0000
vt 5.3860 8.3810 0.0000
vt 4.2323 9.3898 0.0000
vt -2.7338 8.5715 0.0000
vt 5.2328 8.2468 0.0000
vt -2.8865 8.4376 0.0000
vt -2.2877 6.9675 0.0000
vt -2.4519 9.4645 0.0000
vt -2.0079 8.4450 0.0000
vt 4.9502 9.2645 0.0000
vt 3.9934 10.4158 0.0000
vt -2.2619 9.6068 0.0000
vt 5.1406 9.4071 0.0000
vt 4.2759 11.4478 0.0000
vt -1.4508 10.9182 0.0000
vt 5.4020 10.4386 0.0000
vt -2.0092 10.7645 0.0000
vt -1.4065 9.4745 0.0000
vt 4.8423 10.2845 0.0000
vt -5.0963 4.9074 0.0000
vt 0.5047 1.9959 0.0000
vt -2.3471 4.8458 0.0000
vt -3.2057 4.6443 0.0000
vt -10.6711 9.7639 0.0000
vt -11.9119 8.4050 0.0000
vt -0.8166 6.3689 0.0000
vt -11.6950 9.7213 0.0000
vt -1.7094 6.3333 0.0000
vt -1.7094 8.3491 0.0000
vt -10.5285 10.5905 0.0000
vt -11.2517 9.7575 0.0000
vt -1.2950 8.3814 0.0000
vt -11.3171 10.5521 0.0000
vt -2.0036 8.3491 0.0000
vt -2.0036 9.5383 0.0000
vt -10.2751 11.3872 0.0000
vt -10.9423 10.5834 0.0000
vt -1.6492 9.5662 0.0000
vt -11.0185 11.3532 0.0000
vt -2.3223 9.5383 0.0000
vt -2.3223 10.3650 0.0000
vt -2.3223 10.6891 0.0000
vt -10.2495 12.0052 0.0000
vt -10.7404 11.3766 0.0000
vt -2.0556 10.7098 0.0000
vt -10.8360 11.9792 0.0000
vt -2.5966 10.6891 0.0000
vt -2.5966 11.4073 0.0000
vt 12.4367 8.3652 0.0000
vt 1.2993 6.3333 0.0000
vt 1.2993 3.2955 0.0000
vt 11.2614 8.4080 0.0000
vt 0.3012 3.3312 0.0000
vt 12.8794 6.7107 0.0000
vt -10.7025 12.6052 0.0000
vt -2.8932 11.4073 0.0000
vt -2.8932 12.1255 0.0000
vt -10.1076 12.6249 0.0000
vt -10.5745 11.9960 0.0000
vt -2.3451 11.4215 0.0000
vt -12.4812 2.2750 0.0000
vt -12.4812 0.0000 0.0000
vt 4.8568 0.5687 0.0000
vt -10.5691 3.2749 0.0000
vt 4.8568 1.9948 0.0000
vt 4.8568 1.1375 0.0000
vt -12.4812 3.7770 0.0000
vt -12.4812 4.1578 0.0000
vt -12.4812 7.9612 0.0000
vt 4.8568 2.2750 0.0000
vt 4.8568 2.7852 0.0000
vt 4.8568 3.2955 0.0000
vt 4.8568 6.3333 0.0000
vt 4.8568 8.3491 0.0000
vt 4.8568 9.5383 0.0000
vt 0.1076 7.9836 0.0000
vt 0.1076 6.7474 0.0000
vt 0.8742 11.4535 0.0000
vt 1.6407 16.1595 0.0000
vt 0.8510 30.0135 0.0000
vt -1.0519 27.0641 0.0000
vt -0.3418 12.8822 0.0000
vt -0.2845 11.7394 0.0000
vt 0.8031 28.4878 0.0000
vt 0.0612 4.8353 0.0000
vt 0.5268 19.6792 0.0000
vt 0.3972 15.5483 0.0000
vt 0.6305 22.9846 0.0000
vt 0.7553 26.9620 0.0000
vt 0.6940 25.0094 0.0000
vt 0.5881 0.9617 0.0000
vt 1.0840 0.9617 0.0000
vt 1.0249 2.3804 0.0000
vt 0.8756 5.9668 0.0000
vt 0.8477 6.6363 0.0000
vt -0.5984 12.1262 0.0000
vt -0.6178 11.8886 0.0000
vt 0.6127 5.5113 0.0000
vt -0.5318 12.9442 0.0000
vt 0.5888 25.1102 0.0000
vt -1.5130 19.9998 0.0000
vt -1.5130 19.2867 0.0000
vt 0.5888 5.5113 0.0000
vt -1.2812 7.9337 0.0000
vt 0.5888 4.8325 0.0000
vt -0.4631 12.3133 0.0000
vt -0.4054 11.4904 0.0000
vt -0.3886 11.2513 0.0000
vt 0.5888 1.3778 0.0000
vt -1.5130 0.0000 0.0000
vt 0.5888 0.0000 0.0000
vt -0.4532 0.3276 0.0000
vt 0.7564 0.3276 0.0000
vt 0.1071 2.3835 0.0000
vt -0.5870 1.7086 0.0000
vt -1.3985 0.0000 0.0000
vt -0.7728 0.0000 0.0000
vt -1.1209 2.4446 0.0000
vt -1.3985 2.7557 0.0000
vt -0.0387 2.0511 0.0000
vt 0.6127 0.0000 0.0000
vt 0.6127 2.7557 0.0000
# 189 texture coords

g Layer0_001
usemtl wire_224198087
s off
f 1/1/1 2/1/1 3/1/1 4/1/1 
f 1/1/1 4/1/1 5/1/1 
f 6/1/2 7/1/2 8/1/2 
f 6/1/3 7/1/3 9/1/3 
f 9/1/4 8/1/4 7/1/4 
f 10/2/5 4/3/5 3/4/5 
f 11/5/6 4/6/6 10/7/6 12/8/6 
f 13/9/6 12/8/6 10/7/6 14/10/6 
f 8/11/7 15/12/7 16/13/7 6/14/7 
f 6/14/7 16/13/7 17/15/7 18/16/7 
f 19/17/8 20/18/8 10/19/8 
f 21/20/6 14/10/6 10/7/6 
f 20/18/8 21/21/8 10/19/8 
f 22/22/9 5/23/9 23/24/9 24/25/9 
f 24/25/9 23/24/9 25/26/9 
f 6/27/10 9/28/10 26/29/10 
f 6/30/11 8/31/11 9/32/11 
f 27/33/12 9/34/12 28/35/12 29/36/12 
f 27/33/12 29/36/12 30/37/12 31/38/12 
f 27/33/12 31/38/12 32/39/12 
f 33/40/13 34/41/13 35/42/13 10/43/13 
f 25/26/9 23/24/9 36/44/9 37/45/9 
f 24/46/14 25/47/14 10/48/14 35/49/14 
f 38/50/9 25/26/9 37/45/9 39/51/9 
f 40/52/9 38/50/9 39/51/9 41/53/9 
f 41/53/9 39/51/9 15/54/9 8/55/9 
f 41/53/9 8/55/9 42/56/9 
f 32/57/15 31/58/15 38/59/15 
f 32/60/16 38/61/16 25/62/16 
f 31/63/17 40/64/17 38/65/17 
f 31/66/18 30/67/18 40/68/18 
f 30/69/19 29/70/19 41/71/19 
f 30/72/20 41/73/20 40/74/20 
f 42/75/21 41/76/21 29/77/21 
f 28/78/22 42/79/22 29/80/22 
f 9/81/23 8/82/23 28/83/23 
f 8/84/24 42/85/24 28/86/24 
f 10/48/14 25/47/14 43/87/14 
f 10/88/12 44/89/12 43/90/12 
f 45/91/25 46/92/25 47/93/25 
f 45/94/26 47/95/26 48/96/26 
f 49/97/27 45/98/27 48/99/27 
f 49/100/28 48/101/28 50/102/28 
f 51/103/29 49/104/29 50/105/29 
f 51/106/30 50/107/30 16/108/30 17/109/30 
f 52/110/31 51/111/31 17/112/31 
f 52/113/32 17/114/32 18/115/32 
f 46/116/33 47/117/33 53/118/33 
f 46/119/34 53/120/34 19/121/34 
f 26/122/35 18/123/35 6/124/35 
f 26/125/36 52/126/36 18/127/36 
f 23/128/7 5/129/7 11/130/7 54/131/7 
f 13/132/7 54/131/7 11/130/7 12/133/7 
f 36/134/7 23/128/7 54/131/7 37/135/7 
f 39/136/7 37/135/7 54/131/7 16/13/7 
f 16/13/7 54/131/7 14/137/7 21/138/7 
f 16/13/7 21/138/7 53/139/7 47/140/7 
f 16/13/7 47/140/7 48/141/7 50/142/7 
f 53/143/37 21/144/37 20/145/37 19/146/37 
f 26/147/12 9/148/12 27/149/12 44/150/12 
f 52/151/12 26/147/12 44/150/12 10/152/12 
f 46/153/12 52/151/12 10/152/12 19/154/12 
f 52/151/12 46/153/12 45/155/12 51/156/12 
f 51/156/12 45/155/12 49/157/12 
f 3/158/38 2/159/38 34/160/38 33/161/38 
f 3/158/38 33/161/38 10/162/38 
f 55/163/14 43/164/14 25/165/14 32/166/14 
f 16/167/7 15/168/7 39/169/7 
f 14/170/7 54/171/7 13/172/7 
f 27/149/12 32/173/12 55/174/12 43/175/12 
f 27/149/12 43/175/12 44/150/12 
f 11/176/7 5/177/7 4/178/7 
f 2/179/13 1/180/13 35/181/13 34/182/13 
f 1/183/9 5/184/9 22/185/9 24/186/9 
f 35/187/14 1/188/14 24/189/14 
# 32 polygons - 43 triangles

